<svg xmlns="http://www.w3.org/2000/svg" width="151" height="42" viewBox="0 0 151 42">
    <g fill="#FFF" fill-rule="nonzero">
        <path d="M62.099.589c-.252 0-2.46.04-2.46 1.45 0 1.408 2.208 1.449 2.46 1.449.251 0 2.46-.04 2.46-1.45 0-1.408-2.209-1.45-2.46-1.45m0 2c-.987 0-1.637-.33-1.791-.55.154-.22.804-.55 1.79-.55.987 0 1.638.33 1.792.55-.154.22-.805.55-1.791.55M14.705 15.914a.526.526 0 0 1 .14.388c0 .185-.14.42-.417.707-.278.287-.648.568-1.11.846a7.725 7.725 0 0 1-1.597.706 5.937 5.937 0 0 1-.713.168V7.905c.13.025.267.039.394.07a10.13 10.13 0 0 1 1.693.554c.481.212.86.434 1.138.665.278.23.417.42.417.568a.488.488 0 0 1-.139.36l.36.166 1.722-2.965-.333-.222a6.326 6.326 0 0 1-.139.18c-.037.047-.13.07-.277.07-.13 0-.366-.079-.708-.236a15.09 15.09 0 0 0-1.319-.513 17.043 17.043 0 0 0-1.887-.512 9.85 9.85 0 0 0-.922-.14V3.555H9.575V5.86c-.04 0-.075-.005-.116-.005-.374 0-.735.019-1.088.05v-2.35H6.938V6.13a9.02 9.02 0 0 0-1.074.306c-1.064.389-1.97.91-2.72 1.566a6.844 6.844 0 0 0-1.721 2.259 6.26 6.26 0 0 0-.597 2.689c0 1.127.212 2.165.638 3.117a7.288 7.288 0 0 0 1.79 2.467c.769.692 1.69 1.224 2.763 1.593.297.102.606.188.92.261v2.956h1.434v-2.726c.39.038.787.063 1.199.063h.005v2.663h1.433v-2.733a9.2 9.2 0 0 0 1.532-.267c.814-.226 1.485-.483 2.013-.774.527-.29.934-.557 1.221-.798.287-.242.476-.363.569-.363.166 0 .305.065.416.194l.361-.25-2.054-2.66-.36.221zm-9.521 1.363a5.835 5.835 0 0 1-1.513-1.784 4.658 4.658 0 0 1-.569-2.28c0-.959.185-1.784.555-2.475.37-.69.847-1.257 1.43-1.7a5.911 5.911 0 0 1 1.85-.932v10.158c-.639-.26-1.234-.577-1.753-.987zm3.187 1.432V7.807a7.94 7.94 0 0 1 .95-.068c.087 0 .167.012.254.014v11.089a7.597 7.597 0 0 1-1.204-.133zM28.994 8.242c-.611-.563-1.347-1.012-2.207-1.345-.86-.332-1.827-.498-2.901-.498-1.073 0-2.04.166-2.9.498-.86.333-1.597.782-2.207 1.345a5.733 5.733 0 0 0-1.402 1.981 6.14 6.14 0 0 0-.486 2.44c0 .868.162 1.68.486 2.438a5.728 5.728 0 0 0 1.402 1.982c.61.563 1.347.997 2.207 1.302.86.305 1.827.457 2.9.457 1.074 0 2.04-.152 2.9-.457.861-.305 1.597-.739 2.208-1.302a5.717 5.717 0 0 0 1.402-1.982c.323-.758.485-1.57.485-2.438 0-.87-.162-1.682-.485-2.44a5.725 5.725 0 0 0-1.402-1.981m-.305 6.25a4.418 4.418 0 0 1-1.027 1.496 4.9 4.9 0 0 1-1.624 1.011c-.64.25-1.356.375-2.152.375s-1.513-.125-2.151-.375a4.904 4.904 0 0 1-1.624-1.011 4.415 4.415 0 0 1-1.027-1.497 4.742 4.742 0 0 1-.36-1.857c0-.646.12-1.256.36-1.828a4.426 4.426 0 0 1 1.027-1.497 4.74 4.74 0 0 1 1.624-.998c.638-.24 1.355-.36 2.15-.36.797 0 1.514.12 2.153.36.638.24 1.18.573 1.624.998.444.425.786.924 1.027 1.497.24.572.36 1.182.36 1.828a4.75 4.75 0 0 1-.36 1.857M32.952 6.897c.295 0 .485.052.57.153.082.102.124.31.124.624v9.977c0 .314-.042.522-.125.623-.084.102-.274.153-.57.153v.332h3.11v-.332c-.297 0-.486-.051-.57-.153-.082-.101-.124-.309-.124-.623V7.673c0-.314.042-.521.125-.623.083-.101.272-.153.568-.153v-.332h-3.108v.332zM48.389 6.897c.296 0 .495.052.597.153.101.102.153.31.153.624v8.563l-7.524-8.62c-.203-.258-.304-.414-.304-.47 0-.074.05-.134.151-.18.102-.046.302-.07.598-.07v-.332h-4.054v.332c.296 0 .496.052.598.153.101.102.152.31.152.623v9.978c0 .314-.05.522-.152.623-.102.102-.302.153-.598.153v.332h3.055v-.332c-.297 0-.496-.051-.597-.153-.102-.101-.153-.31-.153-.623V8.727l7.856 8.951c.092.111.17.2.236.264a.321.321 0 0 1 .097.235c0 .093-.037.157-.111.194-.074.037-.296.056-.666.056v.332h3.72v-.332c-.296 0-.496-.051-.598-.153-.101-.101-.152-.309-.152-.623V7.673c0-.314.05-.521.152-.623.102-.101.302-.153.597-.153v-.332H48.39v.332zM60.646 4.947c.26 0 .435.061.528.181.092.12.138.281.138.485v12.582c0 .204-.046.365-.138.486-.093.12-.269.18-.528.18v.332h2.905v-.333c-.26 0-.435-.06-.527-.18-.093-.12-.14-.281-.14-.485V5.613c0-.204.047-.365.14-.485.092-.12.268-.18.527-.18v-.333h-2.905v.332zM77.518 8.144c-.509-.544-1.161-.974-1.957-1.288-.796-.314-1.74-.471-2.83-.471h-6.719v.332c.296 0 .486.051.57.153.082.102.124.31.124.623v9.978c0 .314-.042.522-.125.623-.083.101-.273.152-.569.152v.333h6.718c1.092 0 2.035-.157 2.831-.471.796-.314 1.448-.744 1.957-1.29a5.08 5.08 0 0 0 1.125-1.94c.24-.747.36-1.546.36-2.396 0-.869-.12-1.672-.36-2.412a5.11 5.11 0 0 0-1.125-1.926m-.61 6.097a3.89 3.89 0 0 1-.833 1.442c-.38.415-.87.743-1.471.983-.602.24-1.338.361-2.208.361h-3.97v-9.09h3.97c.87 0 1.606.12 2.208.36.601.24 1.091.568 1.47.984.38.416.657.896.834 1.441.175.545.263 1.132.263 1.76 0 .628-.088 1.215-.263 1.76M92.448 8.062c-.61-.564-1.345-1.012-2.206-1.345-.86-.332-1.828-.498-2.9-.498-1.074 0-2.042.166-2.901.498-.861.333-1.597.781-2.208 1.345a5.728 5.728 0 0 0-1.4 1.981 6.13 6.13 0 0 0-.487 2.44c0 .868.162 1.68.486 2.437.323.759.79 1.42 1.401 1.982.611.564 1.347.998 2.208 1.303.86.304 1.827.457 2.9.457s2.04-.153 2.901-.457c.861-.305 1.596-.739 2.206-1.303a5.714 5.714 0 0 0 1.403-1.982c.324-.757.485-1.57.485-2.438 0-.868-.161-1.681-.485-2.439a5.724 5.724 0 0 0-1.403-1.981m-.304 6.25a4.42 4.42 0 0 1-1.027 1.496 4.887 4.887 0 0 1-1.624 1.01c-.639.25-1.356.376-2.152.376s-1.513-.126-2.15-.375a4.886 4.886 0 0 1-1.625-1.011 4.407 4.407 0 0 1-1.027-1.497 4.736 4.736 0 0 1-.361-1.857c0-.646.12-1.256.361-1.829a4.419 4.419 0 0 1 1.027-1.496 4.725 4.725 0 0 1 1.624-.998c.638-.24 1.355-.36 2.151-.36.796 0 1.513.12 2.152.36.638.24 1.18.573 1.624.998.444.425.786.924 1.027 1.496.24.573.36 1.183.36 1.83 0 .664-.12 1.284-.36 1.856M107.932 16.195c0 .315-.046.532-.139.652-.093.12-.277.18-.556.18h-8.715V7.493c0-.314.042-.521.124-.623.084-.102.273-.153.57-.153v-.332h-3.11v.332c.296 0 .486.051.57.153.083.102.125.31.125.623v9.977c0 .314-.042.523-.125.624-.084.101-.274.153-.57.153v.332h11.131c.279 0 .463.037.556.11.093.074.139.213.139.416h.333v-2.91h-.333zM111.336 16.308c.416 0 .767.138 1.053.414.286.275.43.611.43 1.008 0 .385-.147.715-.439.99a1.47 1.47 0 0 1-1.044.414c-.41 0-.76-.14-1.049-.418a1.343 1.343 0 0 1-.434-1.003c0-.385.143-.714.43-.987a1.5 1.5 0 0 1 1.053-.418zM122.917 15.378l1.349 2.344-.184.161c-.128-.107-.229-.161-.303-.161-.09 0-.3.117-.63.351-.73.506-1.373.857-1.932 1.053-.558.196-1.202.294-1.931.294-1.458 0-2.647-.414-3.567-1.243-.522-.474-.936-1.069-1.245-1.784a6.323 6.323 0 0 1-.495-2.514c0-1.246.303-2.346.91-3.302.952-1.492 2.413-2.239 4.381-2.239.729 0 1.377.098 1.943.294.567.197 1.212.548 1.936 1.054.33.234.54.35.63.35.074 0 .175-.053.303-.16l.184.17-1.349 2.325-.175-.151a.934.934 0 0 1 .015-.142 1.51 1.51 0 0 0 .009-.123c0-.308-.36-.658-1.078-1.048-.681-.372-1.367-.557-2.059-.557-.968 0-1.766.303-2.394.908-.718.681-1.077 1.555-1.077 2.621 0 1.073.359 1.95 1.077 2.63.633.6 1.431.9 2.394.9.756 0 1.508-.225 2.259-.674.585-.354.878-.664.878-.93 0-.012-.009-.1-.024-.266l.175-.16zM130.884 8.338c1.538 0 2.82.43 3.846 1.29 1.227 1.038 1.84 2.483 1.84 4.337 0 1.74-.613 3.128-1.84 4.165-1.015.86-2.29 1.29-3.829 1.29-1.538 0-2.814-.43-3.828-1.29-1.233-1.037-1.85-2.454-1.85-4.25 0-1.816.617-3.233 1.85-4.251 1.02-.842 2.29-1.272 3.81-1.29zm.009 2.012c-.998 0-1.81.35-2.44 1.053-.581.658-.872 1.483-.872 2.476 0 .987.29 1.81.873 2.467.628.709 1.444 1.063 2.447 1.063.997 0 1.81-.354 2.438-1.063.583-.651.874-1.458.874-2.42 0-1.043-.291-1.884-.874-2.523-.634-.69-1.45-1.04-2.446-1.053zM143.59 19.193l-3.528-6.99v6.013c0 .195.04.346.121.45.08.104.224.191.432.26v.267h-3.213v-.266c.202-.057.344-.14.428-.247.083-.107.125-.26.125-.455V9.534c0-.196-.04-.347-.12-.45-.082-.105-.225-.189-.433-.252v-.266h4.087v.266c-.271.095-.406.275-.406.54 0 .26.098.576.293.95l2.413 4.806 2.43-4.74c.276-.5.414-.854.414-1.063 0-.26-.141-.424-.424-.493v-.266h3.983v.266c-.207.063-.351.147-.432.25-.08.105-.12.255-.12.451v8.683c0 .196.04.348.12.455.08.107.225.193.432.256v.266h-3.42v-.266c.202-.057.344-.14.428-.247.083-.108.125-.26.125-.456v-6.022l-3.735 6.99zM34.945 27.86c1.029.346 1.543 1.058 1.543 2.138 0 .522-.138.982-.415 1.379-.272.393-.64.67-1.102.832-.463.162-1.122.243-1.979.243h-5.156v-.208c.164-.042.275-.1.33-.174.057-.074.085-.201.085-.382v-7.311c0-.182-.028-.31-.084-.386-.057-.075-.167-.132-.331-.171v-.207h5.28c.519 0 .948.04 1.287.123.34.082.639.218.898.408.597.427.895 1.04.895 1.839 0 .85-.417 1.476-1.251 1.877zm-5.676-.433h3.412c.484 0 .847-.016 1.086-.046.24-.03.462-.086.665-.168.251-.104.446-.263.584-.48.138-.215.208-.466.208-.75 0-.38-.124-.704-.37-.972a1.558 1.558 0 0 0-.775-.437c-.318-.08-.806-.12-1.463-.12H29.27v2.973zm0 4.183h3.555c.51 0 .889-.016 1.135-.049a2.45 2.45 0 0 0 .687-.19c.26-.121.462-.303.607-.545.145-.241.217-.522.217-.841 0-.423-.127-.784-.382-1.082a1.588 1.588 0 0 0-.811-.502c-.329-.088-.835-.133-1.518-.133h-3.49v3.342zM39.608 31.61h5.656c.182 0 .31-.028.386-.084.076-.056.133-.166.172-.33h.208v1.67h-.208c-.039-.164-.096-.274-.172-.33-.076-.056-.204-.084-.386-.084h-7.09v-.208c.17-.043.28-.1.335-.174.054-.074.08-.201.08-.382v-7.311c0-.182-.027-.309-.083-.382-.057-.074-.167-.132-.331-.175v-.207h1.848v.207c-.164.043-.274.101-.33.175-.057.073-.085.2-.085.382v7.233zM51.848 23.457c1.56 0 2.819.408 3.775 1.224a4.256 4.256 0 0 1 1.206 1.664c.22.54.331 1.12.331 1.742 0 .842-.24 1.63-.72 2.364-.528.811-1.26 1.396-2.199 1.755-.7.267-1.494.401-2.38.401-1.553 0-2.805-.408-3.756-1.224a4.392 4.392 0 0 1-1.537-3.354c0-.877.238-1.684.714-2.422.518-.799 1.254-1.382 2.205-1.749.666-.254 1.453-.388 2.36-.401zm0 .887c-1.328 0-2.379.371-3.153 1.114-.709.682-1.063 1.539-1.063 2.57 0 1.037.354 1.896 1.063 2.578.77.743 1.825 1.114 3.166 1.114 1.344 0 2.404-.371 3.178-1.114.705-.682 1.057-1.524 1.057-2.525 0-1.084-.352-1.958-1.057-2.623a3.68 3.68 0 0 0-1.362-.835c-.536-.182-1.146-.275-1.83-.279zM68.219 24.377l-.96 1.599-.175-.104c.039-.13.058-.23.058-.304 0-.177-.277-.4-.83-.667a5.606 5.606 0 0 0-2.49-.557c-1.212 0-2.193.334-2.945 1.003-.766.682-1.148 1.563-1.148 2.646 0 1.079.397 1.974 1.193 2.685.77.695 1.719 1.042 2.847 1.042 1.103 0 2.076-.32 2.92-.962.38-.289.57-.494.57-.615 0-.06-.037-.16-.11-.298l.155-.123 1.155 1.399-.162.13c-.122-.108-.221-.162-.299-.162-.047 0-.13.045-.246.136a9.992 9.992 0 0 1-.99.672c-.261.149-.547.275-.859.38a6.536 6.536 0 0 1-2.127.33c-1.492 0-2.705-.414-3.639-1.243-.982-.868-1.472-1.975-1.472-3.322 0-1.062.307-1.982.92-2.759.96-1.217 2.398-1.826 4.314-1.826 1.267 0 2.493.335 3.678 1.004a.428.428 0 0 0 .162.065c.056 0 .158-.082.305-.247l.175.098zM71.339 29.058v2.63c0 .177.028.303.084.378.056.076.166.135.33.178v.208h-1.848v-.208c.165-.042.275-.1.331-.174.056-.074.084-.201.084-.382v-7.311c0-.182-.028-.31-.084-.386-.056-.075-.166-.132-.33-.171v-.207h1.848v.207c-.165.043-.275.101-.331.175-.056.073-.084.2-.084.382v3.674l4.778-3.733c.168-.13.252-.235.252-.317 0-.095-.082-.155-.246-.181v-.207h2.338v.207c-.26.017-.515.123-.766.317l-3.597 2.786 3.96 5.004c.095.121.184.202.266.243a.99.99 0 0 0 .376.075v.207h-2.16v-.207c.186-.043.28-.106.28-.188 0-.052-.096-.2-.286-.447l-3.205-4.092-1.99 1.54zM88.52 24.377l-.96 1.599-.175-.104c.04-.13.059-.23.059-.304 0-.177-.277-.4-.83-.667a5.606 5.606 0 0 0-2.491-.557c-1.21 0-2.192.334-2.945 1.003-.765.682-1.148 1.563-1.148 2.646 0 1.079.398 1.974 1.194 2.685.77.695 1.718 1.042 2.847 1.042 1.103 0 2.076-.32 2.919-.962.38-.289.57-.494.57-.615 0-.06-.036-.16-.11-.298l.156-.123 1.154 1.399-.162.13c-.12-.108-.22-.162-.298-.162-.048 0-.13.045-.246.136-.398.298-.728.522-.99.672-.261.149-.548.275-.859.38a6.537 6.537 0 0 1-2.127.33c-1.492 0-2.705-.414-3.64-1.243-.98-.868-1.472-1.975-1.472-3.322 0-1.062.307-1.982.921-2.759.96-1.217 2.398-1.826 4.314-1.826 1.267 0 2.493.335 3.677 1.004a.428.428 0 0 0 .163.065c.056 0 .158-.082.304-.247l.175.098zM97.705 28.327H91.64v3.36c0 .182.027.31.082.383.054.073.165.131.333.174v.208h-1.848v-.208c.169-.043.28-.1.334-.174.054-.074.081-.201.081-.382v-7.311c0-.182-.028-.31-.084-.386-.057-.075-.167-.132-.331-.171v-.207h1.848v.207c-.164.043-.274.101-.33.175-.057.073-.085.2-.085.382v3.108h6.065v-3.108c0-.182-.028-.31-.084-.386-.057-.075-.167-.132-.331-.171v-.207h1.848v.207c-.164.043-.274.101-.33.175-.057.073-.085.2-.085.382v7.31c0 .178.028.304.084.38.057.075.167.134.331.177v.208H97.29v-.208c.164-.042.274-.1.33-.174.057-.074.085-.201.085-.382v-3.361zM107.366 29.972h-4.736l-.779 1.677c-.073.16-.11.272-.11.336 0 .13.128.216.384.26v.207h-1.975v-.208a.698.698 0 0 0 .406-.194c.092-.1.214-.315.366-.647l3.243-6.988c.078-.168.117-.282.117-.343 0-.112-.106-.196-.318-.252v-.208h2.153v.208c-.212.069-.318.16-.318.272 0 .047.04.155.117.323l3.107 6.735c.23.497.38.788.454.874.074.087.234.16.48.22v.208h-2.101v-.208c.251-.034.377-.13.377-.284 0-.07-.048-.203-.143-.402l-.724-1.586zm-.375-.842l-1.993-4.368-1.992 4.368h3.985zM111.293 31.688v-7.311c0-.182-.028-.31-.084-.386-.056-.075-.166-.132-.33-.171v-.207h1.848v.207c-.165.043-.275.101-.331.175-.056.073-.084.2-.084.382v7.31c0 .182.027.31.08.383.055.073.166.131.335.174v.208h-1.849v-.208c.169-.043.28-.1.334-.174.054-.074.081-.201.081-.382zM116.022 24.733v6.955c0 .177.028.303.084.378.056.076.166.135.33.178v.208h-1.757v-.208c.169-.042.28-.1.334-.174.054-.074.081-.201.081-.382v-7.311c0-.182-.028-.31-.084-.386-.056-.075-.166-.132-.33-.171v-.207h2.543v.207c-.203.069-.305.166-.305.291 0 .087.102.249.305.486l5.337 6.23v-6.45c0-.182-.028-.31-.084-.385-.057-.076-.167-.133-.331-.172v-.207h1.757v.207c-.164.039-.274.096-.33.172-.057.075-.085.203-.085.385v7.31c0 .182.028.31.085.383.056.073.166.132.33.175v.207h-2.043v-.207c.199-.052.298-.14.298-.266 0-.095-.091-.25-.273-.466l-5.862-6.78zM43.96 36.189v4.592c0 .116.018.2.055.25.037.05.11.089.218.117v.137h-1.16v-.137c.111-.028.184-.067.22-.115.036-.049.054-.133.054-.252v-4.827c0-.12-.019-.205-.056-.254-.037-.05-.11-.088-.218-.114v-.137h1.68v.137c-.135.046-.202.11-.202.193 0 .057.067.164.201.32l3.524 4.113v-4.258c0-.12-.019-.204-.056-.254-.037-.05-.11-.088-.219-.114v-.136h1.16v.136c-.108.026-.18.064-.217.114-.038.05-.056.134-.056.254v4.827c0 .12.018.203.056.252.037.048.11.087.218.115v.137h-1.35v-.137c.132-.034.198-.092.198-.175 0-.063-.06-.165-.18-.308l-3.87-4.476zM51.393 38.562v2.167h3.747c.12 0 .205-.018.255-.055.05-.037.087-.11.113-.219h.137v1.103h-.137c-.028-.108-.068-.18-.118-.218-.05-.037-.134-.055-.254-.055h-4.69v-.137c.112-.028.185-.067.221-.115.036-.049.054-.133.054-.253v-4.826c0-.12-.019-.204-.056-.253-.037-.048-.11-.087-.218-.115v-.137h4.637c.12 0 .204-.018.253-.055.049-.036.087-.109.116-.218h.137v1.103h-.137c-.026-.108-.064-.18-.114-.218-.05-.037-.135-.056-.255-.056h-3.69v2h2.419c.12 0 .204-.018.254-.055.05-.037.088-.11.114-.218h.137v1.103h-.137c-.026-.108-.064-.18-.114-.218-.05-.037-.135-.056-.254-.056h-2.42zM60.788 36.323l-1.48 4.265a1.324 1.324 0 0 0-.087.35c0 .095.082.165.245.21v.137h-1.421v-.137c.163-.031.244-.1.244-.21 0-.06-.031-.176-.094-.35l-1.565-4.296c-.108-.294-.192-.478-.25-.554-.059-.075-.157-.126-.294-.152v-.137h1.373v.137c-.171.02-.257.093-.257.218 0 .046.038.179.116.398l1.455 4.123 1.445-4.123c.083-.242.124-.382.124-.42 0-.102-.081-.167-.244-.196v-.137h1.493v.137c-.162.04-.244.113-.244.218 0 .043.039.176.116.398l1.417 4.123 1.402-4.123c.068-.205.103-.34.103-.406 0-.109-.08-.178-.24-.21v-.136h1.293v.136a.502.502 0 0 0-.306.165c-.065.081-.144.261-.238.54l-1.496 4.297a1.322 1.322 0 0 0-.086.33c0 .114.082.19.245.23v.137H62.16v-.137c.162-.037.244-.115.244-.235a1.31 1.31 0 0 0-.086-.29l-1.53-4.3zM71.365 35.812l-.612 1.104-.12-.064c.048-.129.072-.209.072-.24 0-.085-.105-.178-.316-.278a4.261 4.261 0 0 0-1.825-.402c-.528 0-.987.099-1.378.295a1.224 1.224 0 0 0-.448.375.822.822 0 0 0-.165.487c0 .142.043.276.129.403a.79.79 0 0 0 .338.284c.154.07.336.12.546.147.21.027.552.047 1.026.062.656.02 1.126.05 1.408.091.283.042.516.114.698.216.486.271.728.683.728 1.236 0 .527-.22.96-.659 1.295-.488.376-1.16.565-2.017.565-.494 0-.925-.05-1.293-.15-.368-.1-.808-.284-1.319-.552a1.139 1.139 0 0 0-.253-.098c-.042 0-.11.051-.2.154l-.116-.073.642-1.073.12.069a.702.702 0 0 0-.082.23c0 .092.183.233.548.424.329.17.645.294.95.37.303.075.634.113.99.113.723 0 1.27-.158 1.645-.475.248-.21.372-.461.372-.752 0-.382-.212-.646-.638-.79a1.72 1.72 0 0 0-.426-.093 39.434 39.434 0 0 0-1.252-.057 8.081 8.081 0 0 1-1.154-.112 2.452 2.452 0 0 1-.743-.265 1.32 1.32 0 0 1-.66-1.15c0-.413.154-.768.463-1.064.228-.217.544-.387.946-.511a4.477 4.477 0 0 1 1.323-.186c.391 0 .754.039 1.09.116.335.078.714.211 1.137.4.094.04.152.061.175.061.052 0 .122-.057.21-.172l.12.06zM77.972 35.347c1.03 0 1.861.27 2.492.808.354.299.62.665.797 1.098.145.357.218.74.218 1.15 0 .556-.158 1.076-.475 1.56a2.928 2.928 0 0 1-1.452 1.16 4.379 4.379 0 0 1-1.571.265c-1.025 0-1.852-.27-2.48-.808a2.907 2.907 0 0 1-1.015-2.215c0-.578.157-1.112.471-1.599.343-.527.828-.912 1.456-1.154.44-.168.96-.257 1.56-.265zm0 .585c-.876 0-1.57.246-2.081.736-.468.45-.702 1.016-.702 1.697 0 .684.234 1.251.702 1.702.508.49 1.205.735 2.09.735.887 0 1.587-.245 2.098-.735.465-.45.698-1.007.698-1.668 0-.715-.233-1.292-.698-1.731a2.431 2.431 0 0 0-.9-.552 3.842 3.842 0 0 0-1.207-.184zM83.449 35.954v3.228c0 .382.02.65.06.806a.81.81 0 0 0 .248.404c.306.273.875.41 1.709.41.908 0 1.503-.161 1.785-.483a.843.843 0 0 0 .189-.387c.031-.15.047-.4.047-.75v-3.228c0-.117-.019-.2-.056-.25-.037-.05-.11-.09-.218-.118v-.137h1.16v.137c-.108.026-.181.064-.218.114-.037.05-.056.134-.056.254v3.36c0 .414-.04.728-.12.945-.148.388-.427.673-.837.855-.41.182-.977.274-1.702.274-1.085 0-1.827-.21-2.227-.629a1.39 1.39 0 0 1-.34-.575c-.064-.215-.097-.505-.097-.87v-3.36c0-.12-.018-.205-.055-.255-.037-.05-.11-.087-.219-.113v-.137h1.22v.137c-.108.029-.18.068-.218.118-.037.05-.055.133-.055.25zM92.142 36.005v4.776c0 .116.018.2.055.25.037.05.11.089.219.117v.137h-1.22v-.137c.108-.028.18-.067.218-.115.037-.049.056-.133.056-.252v-4.776H89.49c-.12 0-.205.018-.255.054-.05.037-.087.11-.113.22h-.137v-1.103h.137c.026.11.063.182.113.219.05.036.135.054.255.054h4.63c.119 0 .204-.018.254-.054.05-.037.088-.11.113-.22h.137v1.104h-.137c-.025-.11-.063-.183-.113-.22-.05-.036-.135-.054-.255-.054h-1.978zM96.304 40.73h3.734c.12 0 .205-.02.255-.056.05-.037.087-.11.113-.219h.137v1.103h-.137c-.026-.108-.063-.18-.113-.218-.05-.037-.135-.055-.255-.055h-4.68v-.137c.11-.028.184-.067.22-.115.036-.049.053-.133.053-.253v-4.826c0-.12-.018-.204-.055-.253-.037-.048-.11-.087-.219-.115v-.137h1.22v.137c-.108.028-.18.067-.218.115-.037.049-.055.133-.055.253v4.775zM102.252 38.562v2.167h3.747c.12 0 .204-.018.254-.055.05-.037.088-.11.114-.219h.137v1.103h-.137c-.029-.108-.068-.18-.118-.218-.05-.037-.135-.055-.254-.055h-4.69v-.137c.112-.028.185-.067.221-.115.036-.049.053-.133.053-.253v-4.826c0-.12-.018-.204-.055-.253-.037-.048-.11-.087-.219-.115v-.137h4.638c.12 0 .204-.018.253-.055.048-.036.087-.109.115-.218h.137v1.103h-.137c-.026-.108-.063-.18-.113-.218-.05-.037-.135-.056-.255-.056h-3.691v2h2.42c.12 0 .204-.018.254-.055.05-.037.088-.11.113-.218h.137v1.103h-.137c-.025-.108-.063-.18-.113-.218-.05-.037-.135-.056-.255-.056h-2.42zM110.217 36.005v4.776c0 .116.018.2.055.25.037.05.11.089.219.117v.137h-1.22v-.137c.108-.028.18-.067.218-.115.037-.049.055-.133.055-.252v-4.776h-1.978c-.12 0-.205.018-.255.054-.05.037-.088.11-.113.22h-.137v-1.103h.137c.025.11.063.182.113.219.05.036.135.054.255.054h4.629c.12 0 .205-.018.255-.054.05-.037.087-.11.113-.22h.137v1.104h-.137c-.026-.11-.063-.183-.113-.22-.05-.036-.135-.054-.255-.054h-1.978zM10.547 28.116H24.99v1.03H10.547zM126.36 28.116h14.444v1.03H126.36z"/>
    </g>
</svg>
